<svg width="321" height="296" viewBox="0 0 321 296" fill="none" xmlns="http://www.w3.org/2000/svg">
<g clip-path="url(#clip0_155_758)">
<path d="M27.5262 104.085C27.0292 104.44 26.5322 104.937 26.2482 105.505C25.8222 106.357 25.5382 107.422 26.5322 107.919C31.4312 110.191 35.9042 113.386 39.5962 117.291C41.4422 119.208 43.2172 121.338 44.4952 123.752C45.1342 124.959 45.6312 126.166 45.7732 127.444C45.8442 127.799 45.8442 128.083 45.8442 128.438C45.8442 128.509 45.8442 128.722 45.8442 128.722C45.8442 128.793 45.8442 128.864 45.8442 128.935C45.8442 129.219 45.7732 129.503 45.7022 129.787C45.7022 129.858 45.6312 130.071 45.6312 130.142C45.6312 130.213 45.5602 130.355 45.5602 130.426C45.4892 130.639 45.4182 130.852 45.3472 130.994L45.2762 131.065C45.2052 131.207 45.1342 131.349 45.0632 131.491C44.9922 131.562 44.9212 131.704 44.9212 131.775C44.9212 131.846 44.8502 131.846 44.8502 131.917C44.7082 132.13 44.7082 132.13 44.9212 131.775C44.8502 131.988 44.4952 132.343 44.3532 132.556C44.2822 132.698 44.1402 132.769 44.0692 132.911C43.7852 133.266 44.1402 132.84 44.1402 132.84C43.9982 133.053 43.7142 133.266 43.5012 133.479C43.2882 133.692 43.0752 133.905 42.8622 134.047C42.7912 134.118 42.5072 134.331 42.5782 134.26C42.5072 134.331 42.4362 134.402 42.3652 134.473C41.8682 134.828 41.3712 135.183 40.8742 135.467C40.8032 135.538 40.6612 135.609 40.5902 135.68C40.5902 135.68 40.5192 135.68 40.5192 135.751C40.5192 135.751 40.4482 135.751 40.4482 135.822C40.1642 135.964 39.8802 136.106 39.5252 136.248C38.3892 136.745 37.0402 137.242 35.9752 137.526C35.2652 137.668 34.6262 137.881 33.9162 137.952C33.7032 137.81 33.4902 137.739 33.3482 137.597C30.5792 135.964 27.6682 134.544 24.6862 133.337C21.7752 132.201 18.7932 131.278 15.7402 130.639C14.1782 130.284 12.5452 130 10.9122 129.787C9.49221 129.574 7.93021 129.361 6.43921 129.432C4.59321 129.574 2.96021 130.639 2.03721 132.272C1.18521 133.834 1.18521 135.538 2.39221 136.887C3.31521 137.952 4.66421 138.449 5.94221 138.946C7.50421 139.514 9.13721 140.011 10.7702 140.508C17.0182 142.283 23.6212 143.277 30.0822 142.496C30.5792 142.425 31.1472 142.354 31.6442 142.283C32.4962 142.851 33.3482 143.419 34.1292 144.058C35.1232 144.839 36.1172 145.691 36.8272 146.685C37.1822 147.111 37.4662 147.608 37.7502 148.105C37.8922 148.389 38.0342 148.602 38.1052 148.886C38.1762 149.028 38.2472 149.17 38.2472 149.312C38.2472 149.312 38.3182 149.667 38.3182 149.596C38.4602 150.093 38.5312 150.661 38.5312 151.229C38.5312 151.3 38.5312 151.442 38.5312 151.442C38.5312 151.584 38.5312 151.655 38.4602 151.797C38.4602 151.939 38.3892 152.01 38.3892 152.152C38.3892 152.223 38.3892 152.223 38.3182 152.294C38.3182 152.365 38.2472 152.507 38.2472 152.578C38.2472 152.578 38.2472 152.578 38.2472 152.507C38.2472 152.507 38.2472 152.578 38.1762 152.578C38.1762 152.649 38.1052 152.72 38.1052 152.72C38.0342 152.791 38.0342 152.933 37.9632 153.004L38.0342 152.933C38.0342 152.933 37.9632 153.004 37.9632 153.075C37.9632 153.146 37.8922 153.146 37.8922 153.217C37.8212 153.288 37.7502 153.359 37.6792 153.501C37.5372 153.643 37.3952 153.785 37.1822 153.927C37.1112 153.998 36.7562 154.211 37.1112 153.998C37.4662 153.785 37.0402 154.069 36.9692 154.069C36.7562 154.211 36.5432 154.353 36.3302 154.495C36.2592 154.566 36.1882 154.566 36.0462 154.637C35.9752 154.637 35.7622 154.779 35.6912 154.85C34.8392 155.276 33.9162 155.631 32.9222 155.915C32.9222 155.915 32.7802 155.986 32.7092 155.986C32.6382 155.986 32.4962 156.057 32.4962 156.057C32.2122 156.128 31.9992 156.199 31.7152 156.27C31.1472 156.412 30.6502 156.483 30.0822 156.554C28.8752 156.767 27.5972 156.838 26.3902 156.838C20.0712 157.122 13.7522 156.625 7.57521 155.418C6.08421 155.134 4.52221 154.779 3.03121 154.353C1.25621 153.927 -1.29979 157.974 0.759213 158.471C7.50421 160.175 14.4622 161.027 21.4202 161.027C26.7452 161.027 32.5672 160.743 37.1112 157.619C39.5252 155.986 41.3712 153.572 42.0102 150.661C42.6492 147.821 41.6552 145.052 39.8802 142.851C39.1702 141.999 38.3892 141.218 37.6082 140.508C40.9452 139.23 43.9272 137.242 46.3412 134.473C48.3292 132.13 49.6072 129.148 49.6072 126.024C49.6072 122.971 48.0452 120.06 46.2702 117.646C42.7202 112.818 38.1052 108.771 32.9222 105.789C31.5732 105.008 30.2242 104.369 28.8752 103.73C28.4492 103.517 27.8102 103.872 27.5262 104.085ZM9.70521 135.112C8.49821 134.686 7.29121 134.402 6.29721 133.692C6.22621 133.621 6.08421 133.55 6.01321 133.479C6.15521 133.479 6.29721 133.479 6.51021 133.55C7.93021 133.692 9.42121 133.905 10.8412 134.118C13.6812 134.615 16.5212 135.325 19.2902 136.248C21.1362 136.816 22.9112 137.526 24.6152 138.307C22.5562 138.165 20.4972 137.881 18.5092 137.526C15.4562 136.887 12.5452 136.106 9.70521 135.112Z" fill="#E8618C"/>
<path d="M315.906 161.211C310.581 165.684 305.398 170.299 300.357 175.056C301.564 176.476 302.842 177.896 304.12 179.316C309.019 174.843 313.989 170.512 319.101 166.323C318.036 164.619 316.971 162.915 315.906 161.211Z" fill="#636AE8"/>
<path d="M276.718 255.775C275.369 255.704 274.02 255.988 272.813 256.201C271.535 256.485 270.328 256.911 269.192 257.479C267.275 258.402 265.571 259.822 264.506 261.668C262.66 260.816 260.672 260.319 258.826 260.248C255.915 260.106 253.217 261.029 251.016 262.449C248.744 263.94 246.898 265.928 245.336 268.2C243.845 270.33 242.567 272.673 241.715 275.229C239.301 274.306 236.816 274.022 234.615 274.448C228.864 275.442 224.746 279.773 222.616 285.027C222.048 286.376 221.622 287.867 221.267 289.358C222.119 289.997 223.042 290.636 223.894 291.346C223.894 291.275 223.894 291.204 223.965 291.133C224.036 290.778 224.107 290.494 224.178 290.139C224.249 289.997 224.249 289.784 224.32 289.642C224.32 289.571 224.391 289.429 224.391 289.358C224.604 288.719 224.817 288.151 225.03 287.512C225.243 286.944 225.527 286.305 225.882 285.808C226.024 285.524 226.166 285.24 226.379 284.956C226.45 284.814 226.521 284.672 226.592 284.53C226.663 284.459 226.734 284.317 226.805 284.246C227.515 283.252 228.296 282.258 229.219 281.406C229.645 281.051 230.071 280.625 230.497 280.27C230.568 280.199 230.639 280.199 230.71 280.128C230.852 280.057 230.923 279.986 231.065 279.915C231.349 279.773 231.562 279.56 231.846 279.418C232.84 278.85 233.834 278.424 234.97 278.14C235.112 278.14 235.254 278.069 235.396 278.069H235.467C235.538 278.069 235.609 278.069 235.609 278.069C235.893 277.998 236.248 277.998 236.532 277.927C237.1 277.856 237.739 277.856 238.378 277.927C238.662 277.927 238.946 277.998 239.23 277.998C239.372 277.998 239.514 278.069 239.585 278.069C239.585 278.069 239.869 278.14 239.94 278.14C240.224 278.211 240.579 278.282 240.863 278.424C240.437 280.483 240.224 282.613 240.437 284.814C240.579 286.447 240.792 288.151 241.289 289.784C241.857 291.701 242.709 293.689 244.697 294.612C246.188 295.251 247.75 294.967 248.815 294.257C249.809 293.618 250.59 292.624 251.016 291.488C251.939 289.003 251.655 285.737 250.164 282.897C248.886 280.341 246.898 278.282 244.555 276.791C244.768 276.294 244.981 275.726 245.194 275.229C245.478 274.661 245.762 274.093 246.046 273.525C246.188 273.312 246.33 273.028 246.472 272.815C246.543 272.673 246.614 272.531 246.685 272.46C246.756 272.389 246.756 272.318 246.827 272.247C246.827 272.247 246.898 272.176 246.898 272.105L246.969 272.034C247.04 271.963 247.04 271.892 247.111 271.821C247.182 271.679 247.253 271.608 247.395 271.466C247.537 271.253 247.75 270.969 247.892 270.756C248.247 270.259 248.602 269.762 249.028 269.336C249.809 268.413 250.59 267.632 251.513 266.851C252.365 266.141 253.217 265.573 254.353 265.076C254.921 264.792 255.418 264.579 255.986 264.437C256.625 264.224 256.909 264.153 257.548 264.082C258.755 263.94 260.033 263.94 261.311 264.153C261.382 264.153 261.595 264.224 261.595 264.224C261.737 264.224 261.879 264.295 262.092 264.366C262.376 264.437 262.731 264.508 263.015 264.65C263.086 264.65 263.228 264.721 263.299 264.792C262.802 267.135 263.086 269.833 264.648 272.318C265.571 273.809 266.991 274.945 268.553 275.158C269.973 275.3 271.109 274.377 271.535 273.241C272.103 271.75 271.89 269.904 271.038 268.2C270.186 266.496 268.908 265.076 267.417 263.869L267.346 263.798C267.488 263.585 267.701 263.372 267.843 263.23C268.198 262.804 268.624 262.449 269.121 262.165C269.192 262.094 269.263 262.094 269.334 262.023C269.405 261.952 269.547 261.881 269.618 261.81C269.902 261.668 270.115 261.526 270.399 261.384C271.393 260.887 272.458 260.461 273.594 260.177C274.233 260.035 274.446 259.964 275.085 259.893C275.653 259.822 276.221 259.751 276.789 259.68C277.002 259.68 277.286 259.68 277.499 259.68C277.57 259.68 277.712 259.68 277.783 259.68C277.854 259.68 278.067 259.751 278.067 259.751C278.209 259.751 278.351 259.822 278.493 259.893C278.351 258.899 278.209 257.976 278.067 256.982C277.996 256.769 277.996 256.485 277.925 256.272C277.641 255.917 277.144 255.846 276.718 255.775ZM247.111 282.542C247.253 282.684 247.324 282.826 247.466 283.039C247.608 283.323 247.821 283.536 247.963 283.82C247.963 283.891 248.034 283.891 248.034 283.962C248.105 284.104 248.176 284.246 248.247 284.459C248.318 284.601 248.318 284.672 248.389 284.814C248.389 284.814 248.389 284.885 248.46 284.956C248.531 285.24 248.602 285.524 248.673 285.808C248.673 285.95 248.744 286.092 248.744 286.234C248.744 286.305 248.744 286.305 248.744 286.305C248.744 286.589 248.815 286.873 248.815 287.157C248.815 287.228 248.815 287.37 248.815 287.441C248.815 287.512 248.815 287.583 248.815 287.654C248.815 287.938 248.744 288.222 248.673 288.506C248.673 288.577 248.602 288.719 248.602 288.79C248.602 288.861 248.602 288.861 248.602 288.932C248.531 289.216 248.389 289.429 248.318 289.642C248.247 289.713 248.176 289.855 248.176 289.926C248.034 290.139 247.892 290.352 247.679 290.494C247.608 290.565 247.537 290.636 247.395 290.707C247.395 290.707 247.324 290.778 247.253 290.778C247.04 290.92 246.827 291.062 246.614 291.133C246.543 291.204 246.401 291.204 246.259 291.275C246.188 291.275 246.117 291.346 246.046 291.346C245.762 291.417 245.478 291.417 245.123 291.346L244.91 291.275C244.839 291.275 244.768 291.204 244.626 291.204C244.626 291.204 244.626 291.204 244.555 291.204C244.484 291.204 244.413 291.133 244.413 291.133C244.342 291.133 244.342 291.062 244.271 291.062C244.271 291.062 244.271 291.062 244.2 290.991C244.129 290.849 244.129 290.849 244.2 290.991L244.129 290.92C244.129 290.849 243.916 290.494 243.916 290.423C243.916 290.423 244.058 290.778 243.987 290.565C243.987 290.494 243.916 290.423 243.916 290.352C243.845 290.139 243.774 289.926 243.774 289.784C243.561 289.074 243.419 288.364 243.277 287.654V287.583C243.277 287.441 243.206 287.228 243.206 287.086C243.135 286.731 243.135 286.376 243.135 286.021C243.064 285.382 243.064 284.672 243.064 284.033C243.064 283.962 243.064 283.749 243.064 283.749C243.064 283.607 243.064 283.536 243.064 283.394C243.064 283.039 243.135 282.755 243.135 282.4C243.206 281.761 243.348 281.122 243.419 280.483C243.49 280.27 243.49 280.057 243.561 279.844C244.058 280.128 244.484 280.412 244.981 280.767C245.194 280.909 245.407 281.122 245.62 281.264L245.833 281.477C245.975 281.619 246.117 281.761 246.259 281.903C246.472 282.116 246.756 282.4 246.969 282.684C247.04 282.4 247.111 282.471 247.111 282.542ZM268.411 268.058C268.624 268.342 268.766 268.626 268.979 268.91C268.979 268.981 269.05 269.052 269.05 269.123C269.05 269.123 269.121 269.265 269.121 269.336C269.121 269.336 269.192 269.62 269.263 269.691C269.263 269.762 269.263 269.762 269.263 269.833C269.263 269.833 269.263 269.975 269.263 270.046C269.263 270.046 269.263 270.046 269.263 270.117C269.263 270.188 269.263 270.259 269.263 270.259C269.263 270.33 269.192 270.401 269.192 270.472C269.192 270.472 269.192 270.472 269.192 270.543C269.121 270.614 269.121 270.756 269.05 270.756L268.979 270.827C268.908 270.898 268.837 270.969 268.766 271.111C268.695 271.182 268.695 271.182 268.624 271.182C268.624 271.182 268.624 271.182 268.695 271.182C268.553 271.253 268.482 271.324 268.34 271.324C268.269 271.324 268.269 271.324 268.198 271.395C268.056 271.395 267.914 271.395 267.843 271.395C267.701 271.395 267.488 271.324 267.701 271.395C267.559 271.324 267.417 271.324 267.275 271.253C267.275 271.253 267.204 271.253 267.204 271.182C267.133 271.111 267.062 271.04 266.991 271.04C266.991 271.04 266.849 270.898 266.778 270.898C266.707 270.827 266.707 270.827 266.636 270.756C266.565 270.614 266.494 270.543 266.423 270.401L266.352 270.33C266.281 270.188 266.21 270.046 266.139 269.975C266.068 269.833 265.997 269.691 265.997 269.549C265.997 269.478 265.926 269.407 265.926 269.336C265.855 269.194 265.855 269.052 265.784 268.91C265.784 268.91 265.784 268.768 265.713 268.697C265.713 268.626 265.642 268.413 265.642 268.342C265.642 268.2 265.642 268.058 265.642 267.987C265.642 267.987 265.642 267.987 265.642 267.916C265.642 267.845 265.642 267.774 265.642 267.845C265.642 267.561 265.713 267.206 265.784 266.922C265.784 266.78 265.855 266.709 265.855 266.567C265.855 266.496 265.855 266.425 265.926 266.425C265.926 266.354 265.997 266.283 265.997 266.212C266.139 266.283 266.281 266.425 266.423 266.496C266.565 266.567 266.707 266.709 266.849 266.851C266.92 266.851 266.991 266.993 267.062 266.993C267.346 267.206 267.559 267.49 267.843 267.703C267.985 267.845 268.056 267.987 268.198 268.129C268.34 267.987 268.34 267.987 268.411 268.058Z" fill="#636AE8"/>
<path d="M154.79 54.7035C213.578 54.7035 261.29 102.415 261.29 161.203C261.29 219.991 213.578 267.703 154.79 267.703C96.002 267.703 48.29 219.991 48.29 161.203C48.29 102.415 96.002 54.7035 154.79 54.7035Z" fill="#E8618C"/>
<path d="M197.17 165.822C196.957 162.414 198.377 158.367 199.229 158.722C200.152 159.148 199.3 162.343 199.939 163.266C200.791 164.544 201.501 165.751 200.862 168.733L197.17 165.822Z" fill="#FCB47E"/>
<path d="M114.96 119.527C115.67 116.971 117.019 113.634 117.019 113.634C116.522 116.119 116.522 118.817 116.593 120.308C122.983 123.219 136.26 127.053 156.85 122.012C156.566 119.882 156.495 117.894 156.495 117.894C156.85 119.243 157.418 120.592 157.915 121.728C158.625 121.515 159.406 121.373 160.116 121.16C159.477 118.533 159.264 113.989 159.264 113.989C159.974 116.758 161.394 119.527 162.033 120.592C163.311 120.237 164.589 119.811 165.867 119.385C165.867 119.385 161.749 113.137 159.051 96.8068C156.779 83.3878 149.892 77.0688 139.455 77.3528C117.942 77.9208 112.191 117.823 112.191 117.823C112.191 117.823 113.114 118.533 114.96 119.527Z" fill="#374263"/>
<path d="M189.337 166.945C189.337 166.945 180.746 128.179 146.453 126.12C93.7004 123.067 77.4414 157.36 77.4414 157.36L189.337 166.945Z" fill="white"/>
<path d="M134.717 87.2242C140.539 83.8872 150.763 83.7452 153.106 91.6262C155.236 98.8682 154.881 120.807 145.154 120.381C135.001 119.955 131.806 112.216 130.883 107.459C130.599 105.826 128.895 90.5612 134.717 87.2242Z" fill="#FCB47E"/>
<path d="M131.091 107.112C131.091 107.112 126.547 108.532 125.695 104.414C124.914 100.722 129.316 99.3021 130.736 100.935L131.091 107.112Z" fill="#FCB47E"/>
<path d="M194.383 213.7C200.915 200.92 206.027 171.1 206.027 171.1C206.808 169.964 209.932 164.852 210.145 160.947C210.216 159.243 209.364 158.178 208.228 158.746C207.802 157.326 206.95 157.113 205.885 157.894C205.246 156.687 204.465 156.758 203.755 157.326C202.122 154.557 198.785 163.361 198.785 164.497C198.785 165.207 198.998 167.976 199.14 168.757C199.282 169.822 179.615 203.405 179.615 203.405L194.383 213.7Z" fill="#FCB47E"/>
<path d="M107.912 166.046L98.6816 218.87C122.751 226.112 149.944 219.58 172.238 204.883L163.008 152.84L145.897 126.783C145.897 126.783 137.519 136.297 128.36 126.57L104.362 136.652L107.912 166.046Z" fill="white"/>
<path d="M195.876 177.457L190.977 165.387C190.977 165.387 178.836 140.608 168.754 134.218L162.364 177.528L195.876 177.457Z" fill="white"/>
<path d="M138.822 273.136L137.97 273.065C139.319 258.297 140.526 243.813 141.378 230.11L142.23 230.181C141.307 243.884 140.171 258.368 138.822 273.136Z" fill="#47393D"/>
<path d="M163.586 152.701L162.734 152.843L171.893 204.886L172.745 204.744L163.586 152.701Z" fill="#3F5A9F"/>
<path d="M127.467 100.058C127.467 100.058 129.1 99.1347 130.733 100.839C130.733 100.839 131.159 97.3597 132.295 95.2297L133.005 99.0637C134.212 99.2767 137.975 99.8447 142.022 99.9157C143.158 99.9157 146.424 99.9157 146.424 99.9157L147.205 93.5257L148.625 99.8447C149.619 99.7737 150.329 99.7027 151.11 99.5607L151.678 95.7977L152.743 99.3477C153.737 99.2057 154.518 98.9927 154.802 98.9217C155.015 96.2237 155.086 88.9817 150.258 84.7217C144.72 79.8937 133.076 82.5207 130.378 88.3427C127.68 94.1647 127.467 100.058 127.467 100.058Z" fill="#374263"/>
<path d="M138.312 130.832C143.14 130.832 145.98 126.643 145.98 126.643L144.773 112.656L131.496 104.775L128.159 126.43C128.159 126.43 132.348 130.832 138.312 130.832Z" fill="#FCB47E"/>
<path d="M144.704 121.176L144.775 120.324C138.74 120.04 134.835 115.425 132.634 111.591L131.924 112.017C134.196 116.064 138.314 120.892 144.704 121.176Z" fill="#374263"/>
<path d="M109.929 278.139L246.959 256.484C249.799 256.058 251.716 253.36 251.29 250.52L237.374 162.338C236.948 159.498 234.25 157.581 231.41 158.007L94.3804 179.662C91.5404 180.088 89.6234 182.786 90.0494 185.626L103.965 273.808C104.462 276.648 107.089 278.565 109.929 278.139Z" fill="#EA916E"/>
<path d="M135.549 234.851L110.912 238.756C110.131 238.898 109.634 239.608 109.776 240.389L110.557 245.146C110.699 245.927 111.409 246.424 112.19 246.282L136.827 242.377C137.608 242.235 138.105 241.525 137.963 240.744L137.182 235.987C137.04 235.277 136.33 234.78 135.549 234.851Z" fill="white"/>
<path d="M168.36 229.738L143.723 233.643C142.942 233.785 142.445 234.495 142.587 235.276L143.368 240.033C143.51 240.814 144.22 241.311 145.001 241.169L169.638 237.264C170.419 237.122 170.916 236.412 170.774 235.631L169.993 230.874C169.851 230.093 169.07 229.596 168.36 229.738Z" fill="white"/>
<path d="M201.11 224.551L176.473 228.456C175.692 228.598 175.195 229.308 175.337 230.089L176.118 234.846C176.26 235.627 176.97 236.124 177.751 235.982L202.388 232.077C203.169 231.935 203.666 231.225 203.524 230.444L202.743 225.687C202.601 224.977 201.891 224.48 201.11 224.551Z" fill="white"/>
<path d="M233.849 219.428L209.212 223.333C208.431 223.475 207.934 224.185 208.076 224.966L208.857 229.723C208.999 230.504 209.709 231.001 210.49 230.859L235.127 226.954C235.908 226.812 236.405 226.102 236.263 225.321L235.482 220.564C235.34 219.854 234.63 219.286 233.849 219.428Z" fill="white"/>
<path d="M235.899 234.214L203.452 239.326C202.529 239.468 201.89 240.32 202.032 241.314L202.671 245.432C202.813 246.355 203.665 246.994 204.659 246.852L237.106 241.74C238.029 241.598 238.668 240.746 238.526 239.752L237.887 235.634C237.674 234.711 236.822 234.072 235.899 234.214Z" fill="white"/>
<path d="M110.911 206.833L109.349 196.964C108.994 194.834 110.485 192.775 112.615 192.42L131.785 189.367C133.915 189.012 135.974 190.503 136.329 192.633L137.891 202.502C138.246 204.632 136.755 206.691 134.625 207.046L115.455 210.099C113.254 210.454 111.195 208.963 110.911 206.833ZM112.757 193.485C111.195 193.769 110.13 195.189 110.343 196.822L111.905 206.691C112.189 208.253 113.609 209.318 115.242 209.105L134.412 206.052C135.974 205.768 137.039 204.348 136.826 202.715L135.264 192.846C134.98 191.284 133.56 190.219 131.927 190.432L112.757 193.485Z" fill="white"/>
<path d="M209.145 158.713C209.713 158.926 210.068 159.565 209.784 160.133C209.287 161.127 208.506 162.192 207.938 162.263C206.944 162.334 207.441 160.63 207.867 159.423C208.009 158.855 208.577 158.571 209.145 158.713Z" fill="#FCB47E"/>
<path d="M207.431 158.716C207.857 159 207.999 159.497 207.857 159.923C207.431 161.059 206.508 162.692 205.585 162.55C205.017 162.479 205.372 160.704 205.798 159.213C205.94 158.574 206.863 158.29 207.431 158.716Z" fill="#FCB47E"/>
<path d="M205.015 158.077C205.583 158.219 205.938 158.716 205.796 159.284C205.583 160.491 204.944 162.053 203.666 162.55C202.601 162.905 203.169 160.42 203.595 158.858C203.737 158.29 204.305 157.935 204.802 158.077H205.015Z" fill="#FCB47E"/>
<path d="M203.008 156.729C204.002 156.871 204.144 157.936 203.931 158.575C203.434 159.782 202.582 161.202 201.872 161.344C201.02 161.557 201.517 159.498 201.801 157.936C201.801 157.297 202.369 156.658 203.008 156.729Z" fill="#FCB47E"/>
<path d="M98.1295 212.062C98.1295 212.062 82.0835 188.561 106.933 171.876L121.133 131.903V131.619C104.519 131.548 86.6275 141.701 76.9005 155.972C60.7125 179.828 62.3455 208.37 89.4675 223.067L98.1295 212.062Z" fill="white"/>
<path d="M106.289 176.836L105.437 176.694L107.851 164.411L108.703 164.553L106.289 176.836Z" fill="#3F5A9F"/>
<path d="M95.311 223.5C83.596 217.181 75.999 207.88 73.23 196.591C70.106 183.74 73.443 169.256 82.602 155.766L83.312 156.263C74.295 169.54 71.029 183.811 74.082 196.378C76.78 207.383 84.235 216.471 95.666 222.719L95.311 223.5Z" fill="#3F5A9F"/>
<path d="M96.5993 214.031C97.3803 214.67 99.9363 216.871 101.001 217.013C101.924 217.155 107.249 217.368 107.036 218.504C106.894 219.64 103.273 218.788 103.344 219.711C103.344 220.279 110.373 222.196 109.663 223.403C109.166 224.184 105.119 222.48 105.048 222.977C104.977 223.474 110.444 224.539 109.805 225.746C109.166 227.024 103.912 223.758 103.628 224.397C103.486 224.681 109.876 227.024 109.379 228.018C108.669 229.367 103.77 226.101 103.344 226.669C103.131 226.953 105.119 227.805 106.184 228.444C106.823 228.799 106.61 229.367 106.113 229.296C101.143 229.083 94.9663 223.048 94.1853 222.764C92.9783 222.338 91.8423 221.912 90.7773 221.415L96.5993 214.031Z" fill="#FCB47E"/>
<path d="M96.7478 182.808L95.9668 182.382C98.3098 178.335 101.931 174.714 106.617 171.519L107.114 172.229C102.57 175.282 99.0908 178.832 96.7478 182.808Z" fill="#3F5A9F"/>
<path d="M206.915 126.972C190.798 123.777 175.107 134.214 171.912 150.331C168.717 166.448 179.154 182.139 195.271 185.334C211.388 188.529 227.079 178.092 230.274 161.975C233.54 145.858 223.032 130.167 206.915 126.972ZM224.594 160.839C223.316 167.087 219.695 172.554 214.37 176.104C209.045 179.654 202.655 180.932 196.407 179.654C183.485 177.098 175.036 164.46 177.592 151.467C178.87 145.219 182.491 139.752 187.816 136.202C192.928 132.794 199.105 131.445 205.14 132.51C205.353 132.581 205.566 132.581 205.779 132.652C218.559 135.208 226.866 147.42 224.736 160.2C224.665 160.413 224.665 160.626 224.594 160.839Z" fill="#FCC659"/>
<path d="M224.736 160.208C224.665 160.421 224.665 160.634 224.594 160.847C223.316 167.095 219.695 172.562 214.37 176.112C209.045 179.662 202.655 180.94 196.407 179.662C183.485 177.106 175.036 164.468 177.592 151.475C178.87 145.227 182.491 139.76 187.816 136.21C192.928 132.802 199.105 131.453 205.14 132.518C205.353 132.589 205.566 132.589 205.779 132.66C218.559 135.216 226.866 147.499 224.736 160.208Z" fill="#F49B51"/>
<path d="M182.066 140.303C184.764 141.652 186.681 143.782 187.959 146.48C189.237 143.853 191.083 141.723 193.852 140.303C191.154 138.954 189.237 136.824 187.959 134.126C186.681 136.753 184.835 138.883 182.066 140.303Z" fill="#7F55E0"/>
<path d="M206.021 178.193C207.583 178.974 208.648 180.252 209.429 181.743C210.139 180.181 211.275 178.974 212.837 178.193C211.275 177.412 210.139 176.134 209.429 174.643C208.648 176.134 207.583 177.341 206.021 178.193Z" fill="#7F55E0"/>
<path d="M196.895 169.651L183.05 156.303L188.02 151.191L196.895 159.853L213.58 143.736L218.55 148.848L196.895 169.651Z" fill="black"/>
<path d="M13.6094 228.383C18.8634 231.01 22.4844 235.057 24.9694 240.098C27.4544 235.057 31.0754 231.01 36.3294 228.383C31.0754 225.756 27.4544 221.709 24.9694 216.668C22.4844 221.709 18.8634 225.756 13.6094 228.383Z" fill="#7F55E0"/>
<path d="M49.9551 251.833C52.4401 253.04 54.1441 254.886 55.2801 257.158C56.4161 254.886 58.1201 253.04 60.6051 251.833C58.1201 250.626 56.4161 248.78 55.2801 246.508C54.1441 248.78 52.4401 250.626 49.9551 251.833Z" fill="#7F55E0"/>
<path d="M252.573 56.8991C249.307 57.2541 246.467 58.9581 243.911 60.9461C242.704 61.8691 241.568 62.7921 240.361 63.7151C240.29 63.7861 240.29 63.7861 240.219 63.7861C240.219 63.7861 240.148 63.7861 240.148 63.8571C240.006 63.9281 239.864 64.0701 239.722 64.1411C239.367 64.3541 239.083 64.5671 238.728 64.7801C238.586 64.8511 238.373 64.9931 238.231 65.0641C238.231 65.0641 238.16 65.0641 238.16 65.1351C238.089 65.1351 238.018 65.2061 237.947 65.2061C237.876 65.2061 237.876 65.2061 237.876 65.2061H237.805H237.734C237.805 65.2061 237.805 65.2771 237.663 65.2061C237.592 65.1351 237.521 65.1351 237.45 65.0641C237.379 64.9931 237.379 64.9221 237.308 64.8511C237.237 64.7091 237.166 64.5671 237.095 64.4251C237.024 64.3541 237.024 64.2831 237.024 64.2121V64.1411V64.0701C236.811 63.2891 236.598 62.5791 236.456 61.7981C236.314 61.0171 236.243 60.2361 236.172 59.4551C236.101 58.6031 236.101 58.0351 236.101 57.2541C236.101 53.9881 236.527 50.7221 236.669 47.5271C236.811 43.7641 236.598 40.0721 235.036 36.5931C234.823 36.0251 233.971 36.0251 233.474 36.0961C232.835 36.2381 232.196 36.6641 231.912 37.3031C230.563 41.0661 229.214 44.8291 227.865 48.5921C227.723 48.9471 227.581 49.3021 227.439 49.6571C227.368 49.7991 227.297 49.9411 227.226 50.1541C227.155 50.2251 227.155 50.2961 227.084 50.3671C227.226 50.0121 227.084 50.3671 227.013 50.4381C227.013 50.4381 227.013 50.4381 226.942 50.5091C226.942 50.5091 226.942 50.5801 226.871 50.5801C226.871 50.5801 226.871 50.5801 226.942 50.5801C227.013 50.5801 227.013 50.5801 226.942 50.5801C226.942 50.5801 226.871 50.6511 226.871 50.5801C226.871 50.5801 226.871 50.5801 226.942 50.5801H226.871C226.8 50.5801 226.8 50.5801 226.871 50.5801H226.8C226.729 50.5801 226.587 50.5091 226.587 50.5091C226.374 50.3671 226.161 50.1541 225.948 49.9411C225.948 49.9411 225.948 49.9411 225.877 49.8701C225.877 49.7991 225.806 49.7991 225.806 49.7281C225.735 49.5861 225.593 49.4441 225.522 49.3731C225.309 49.0891 225.167 48.7341 224.954 48.3791C224.883 48.2371 224.812 48.0951 224.741 47.9531C224.741 47.8821 224.67 47.8111 224.67 47.7401C224.528 47.3851 224.457 46.9591 224.315 46.5331C224.102 45.6101 223.818 44.6161 223.605 43.6931C223.179 41.7761 222.682 39.8591 222.327 37.9421C221.546 34.1081 220.836 30.2741 220.339 26.4401C219.7 22.1091 219.274 17.7071 218.99 13.3051C218.919 12.4531 217.712 12.3111 217.073 12.5241C216.221 12.8081 215.582 13.5181 215.653 14.4411C216.221 22.7481 217.357 30.9841 218.99 39.0781C219.416 41.0661 219.842 43.0541 220.339 45.0421C220.765 46.8171 221.12 48.6631 221.972 50.3671C222.611 51.6451 223.676 52.9941 225.167 53.3491C227.368 53.9171 229.356 52.4971 230.35 50.5801C230.776 49.6571 231.131 48.6631 231.415 47.7401C231.841 46.6041 232.196 45.5391 232.622 44.4031C232.835 43.9061 232.977 43.4091 233.19 42.8411C233.261 43.6221 233.332 44.4741 233.403 45.2551C233.403 45.3261 233.403 45.3971 233.403 45.5391V45.6811C233.403 45.8941 233.403 46.0361 233.403 46.2491C233.403 46.6751 233.403 47.1011 233.403 47.5981C233.261 50.9351 232.835 54.2721 232.764 57.5381C232.764 59.2421 232.835 60.9461 233.048 62.5791C233.332 64.1411 233.687 66.0581 234.752 67.2651C236.314 68.9691 238.799 67.9751 240.432 66.9811C241.852 66.0581 243.13 65.0641 244.408 63.9991C245.047 63.5021 245.686 62.9341 246.325 62.5081C246.254 62.5791 246.254 62.5791 246.396 62.4371C246.467 62.3661 246.609 62.2951 246.68 62.2241C246.822 62.0821 247.035 62.0111 247.177 61.8691C247.532 61.6561 247.887 61.3721 248.242 61.1591C248.597 60.9461 248.952 60.7331 249.307 60.5911C249.378 60.5911 249.449 60.5201 249.449 60.5201C249.52 60.5201 249.52 60.5201 249.591 60.4491C249.804 60.3781 249.946 60.3071 250.159 60.2361C250.372 60.1651 250.514 60.0941 250.727 60.0231C250.798 60.0231 250.869 59.9521 251.011 59.9521C251.082 59.9521 251.153 59.8811 251.295 59.8811C251.224 59.8811 251.153 59.8811 251.082 59.9521C251.437 59.8101 252.005 59.8101 252.36 59.7391C253.141 59.6681 254.135 58.9581 254.206 58.1061C254.135 57.1831 253.354 56.7571 252.573 56.8991Z" fill="#E8618C"/>
<path d="M239.504 122.102C239.646 121.818 239.859 121.534 240.001 121.25C240.072 121.179 240.356 120.753 240.214 120.966C240.285 120.895 240.356 120.824 240.356 120.753C240.498 120.611 240.64 120.469 240.782 120.327C240.853 120.256 241.279 119.83 240.995 120.114C240.711 120.327 241.137 119.972 241.279 119.901C241.421 119.759 241.563 119.688 241.705 119.546C241.847 119.475 241.989 119.333 242.06 119.262C242.131 119.191 242.202 119.191 242.273 119.12C242.557 118.907 242.912 118.694 243.267 118.552C243.409 118.481 243.622 118.339 243.835 118.268C243.409 118.41 243.835 118.268 244.048 118.197C244.758 117.913 245.468 117.629 246.178 117.416C246.249 117.416 246.462 117.345 246.533 117.345C246.675 117.274 246.888 117.274 247.03 117.203C247.456 117.132 247.882 117.061 248.237 116.99C248.592 116.919 249.018 116.919 249.373 116.848C249.515 116.848 249.586 116.848 249.728 116.848C249.728 116.848 249.799 116.848 249.87 116.848C249.941 116.848 250.012 116.848 250.012 116.848C250.154 116.848 250.225 116.848 250.367 116.848C254.059 116.777 257.68 117.984 261.088 119.404C264.851 120.966 268.401 122.954 272.022 124.658C274.933 126.007 277.986 127.143 281.181 127.072C284.66 127.001 288.21 125.51 289.914 122.315C290.837 120.611 291.05 118.836 291.192 116.919C291.263 116.138 291.334 115.357 291.476 114.576L291.547 114.292C291.618 114.079 291.689 113.937 291.76 113.724C291.76 113.653 291.831 113.653 291.831 113.582C291.831 113.582 291.831 113.511 291.902 113.511L291.973 113.44C292.115 113.369 292.115 113.369 292.115 113.298C292.186 113.227 292.257 113.227 292.257 113.227C292.399 113.156 292.612 113.085 292.754 113.085C292.825 113.085 292.825 113.085 292.825 113.085C292.825 113.085 292.825 113.085 292.896 113.085C293.109 113.014 293.322 113.014 293.464 112.943C293.606 112.943 293.819 112.872 293.961 112.872C294.103 112.872 294.245 112.872 294.387 112.872C296.233 112.943 297.866 113.653 299.428 114.576C301.203 115.57 302.907 116.777 304.682 117.771C306.457 118.836 308.374 119.83 310.22 120.682C311.924 121.534 313.699 122.244 315.545 122.954C317.178 121.96 318.882 121.037 320.586 120.114C318.882 119.546 317.249 118.836 315.545 118.126C311.64 116.422 307.877 114.292 304.256 112.02C302.41 110.884 300.493 109.819 298.363 109.322C296.588 108.896 294.671 109.109 292.967 109.677C290.908 110.458 289.062 111.949 288.068 113.937C287.216 115.641 287.074 117.487 286.932 119.333C286.932 119.759 286.861 120.114 286.79 120.54C286.79 120.753 286.719 120.966 286.719 121.179C286.719 121.25 286.648 121.392 286.648 121.463V121.534C286.648 121.534 286.648 121.534 286.648 121.605C286.577 121.818 286.506 122.031 286.435 122.173C286.435 122.244 286.435 122.244 286.364 122.244C286.364 122.244 286.364 122.244 286.364 122.315C286.293 122.386 286.222 122.528 286.151 122.599C286.08 122.67 286.009 122.741 286.009 122.812C286.009 122.812 286.009 122.812 285.938 122.812C285.867 122.883 285.725 122.954 285.654 123.025C285.512 123.096 285.37 123.167 285.157 123.167H285.086C285.086 123.167 285.086 123.167 285.015 123.167C284.66 123.238 284.376 123.309 284.021 123.309C283.95 123.309 283.737 123.309 283.666 123.309C283.595 123.309 283.311 123.309 283.311 123.309C282.956 123.309 282.601 123.309 282.246 123.238C281.465 123.167 280.755 123.025 280.045 122.883C279.974 122.883 279.832 122.812 279.761 122.812C279.619 122.741 279.406 122.741 279.264 122.67C278.909 122.528 278.483 122.457 278.128 122.315C277.276 122.031 276.495 121.676 275.714 121.321C271.88 119.617 268.188 117.487 264.354 115.854C260.804 114.292 256.828 113.014 252.923 113.014C249.231 113.014 245.61 113.937 242.415 115.712C240.498 116.777 238.723 118.197 237.374 119.901C237.445 119.972 237.516 120.043 237.658 120.185C237.942 120.398 238.084 120.682 238.226 120.966C238.652 121.392 239.007 121.889 239.433 122.315C239.433 122.244 239.433 122.102 239.504 122.102Z" fill="#22CCB2"/>
</g>
<defs>
<clipPath id="clip0_155_758">
<rect y="0.553467" width="321" height="295" fill="white"/>
</clipPath>
</defs>
</svg>
